<svg width="79" height="81" viewBox="194 81 79 81" xmlns="http://www.w3.org/2000/svg"><g fill="none" fill-rule="evenodd"><path d="M245.43 105.356h10.975v-3.398H245.43v3.398zm0 7.67h10.975v-3.4H245.43v3.4zm0 7.67h10.975v-3.398H245.43v3.398zm-35.948-15.34h27.19v-3.398h-27.19v3.398zm0 7.67h27.19v-3.4h-27.19v3.4zm0 7.67h27.19v-3.398h-27.19v3.398zm27.19 21.446c0 1.27-1.03 2.3-2.3 2.3h-22.59c-1.272 0-2.3-1.03-2.3-2.3v-7.974c0-1.27 1.028-2.3 2.3-2.3h22.59c1.27 0 2.3 1.03 2.3 2.3v7.974zM265.72 81c-.528 2.66-2.875 4.67-5.692 4.67-2.818 0-5.165-2.01-5.693-4.67h-6.203c-.526 2.66-2.873 4.67-5.69 4.67-2.82 0-5.167-2.01-5.695-4.67h-6.202c-.528 2.66-2.875 4.67-5.693 4.67-2.817 0-5.164-2.01-5.692-4.67h-6.2c-.53 2.66-2.878 4.67-5.696 4.67-2.817 0-5.164-2.01-5.69-4.67h-7.095v67.186c0 7.628 6.185 13.814 13.814 13.814h50.407c7.628 0 13.813-6.186 13.813-13.814V81h-6.794z" fill="#1DC3A3"/><path d="M253.6 137.512c.8.277 1.397.627 1.792 1.048.395.42.592.98.592 1.672 0 .757-.31 1.413-.928 1.968-.683.587-1.637.923-2.864 1.008v1.408h-1.344v-1.44c-1.11-.107-2.01-.437-2.704-.992-.736-.597-1.104-1.408-1.104-2.432h1.872c0 .512.165.9.496 1.168.33.267.81.437 1.44.512v-3.104l-.8-.272c-.896-.3-1.59-.66-2.08-1.08-.49-.42-.736-1.01-.736-1.768 0-.757.307-1.39.92-1.896.613-.507 1.512-.803 2.696-.888v-1.216h1.344v1.232c1.035.107 1.824.427 2.368.96.544.533.89 1.227 1.04 2.08h-1.872c-.053-.32-.21-.605-.472-.856-.26-.25-.616-.424-1.064-.52v2.912l1.408.496zm-.144 3.52c.267-.235.4-.512.4-.832 0-.608-.384-1.056-1.152-1.344l-.512-.192v2.8c.576-.053.997-.197 1.264-.432zm-3.768-6.544c-.26.224-.392.485-.392.784 0 .3.085.536.256.712.17.176.443.328.816.456l.48.192v-2.576c-.512.064-.9.208-1.16.432z" fill="#FFF"/></g></svg>